{"title":"Body of Evidence (1993) Madonna (DVDrip)","uid":4272892,"size":731183104,"categoryP":"video","categoryS":"movies","magnet":"?xt=urn:btih:7b1f1687510e1502c4e9fe3a626e6eb963ae6ae8&amp;dn=Body+of+Evidence+%281993%29+Madonna+%28DVDrip%29&amp;tr=udp%3A%2F%2Ftracker.openbittorrent.com%3A80&amp;tr=udp%3A%2F%2Fopen.demonii.com%3A1337&amp;tr=udp%3A%2F%2Ftracker.coppersurfer.tk%3A6969&amp;tr=udp%3A%2F%2Fexodus.desync.com%3A6969","seeders":7,"leechers":2,"uploader":"Kuthumi","files":-1,"time":1215031088,"description":" &lt;a href=&quot;http://www.imdb.com/title/tt0106453/&quot; rel=&quot;nofollow&quot; target=&quot;_NEW&quot;&gt;http://www.imdb.com/title/tt0106453/&lt;/a&gt;\n\nMadonna screws and old millionaire to his death, and is accused of having murdered him for his money. Really original court drama, if you can bear with all the sex scenes. One of Madonna's rare full-length feature films.\n\nThis is not my rip, I found it on the net using Piratebay's tracker, so I thought it should be represented here.\n\nWidescreen 576x304, good stereo.\nBurn tested, runs well in my standalone DivX player.\n\nFormat/Info                      : Audio Video Interleave\nFile size                        : 697 MiB\nDuration                         : 1h 38mn\nOveral bit rate                  : 985 Kbps\nWriting application              : Nandub v1.0rc2\nWriting library                  : Nandub build 1853/release\n\nVideo\nFormat                           : MPEG-4 Visual\nFormat settings, BVOP            : Yes\nFormat settings, QPel            : No\nFormat settings, GMC             : No warppoints\nFormat settings, Matrix          : Default\nCodec ID                         : XVID\nCodec ID/Hint                    : XviD\nDuration                         : 1h 38mn\nBit rate                         : 844 Kbps\nWidth                            : 576 pixels\nHeight                           : 304 pixels\nDisplay aspect ratio             : 1.895\nFrame rate                       : 23.976 fps\nResolution                       : 8 bits\nScan type                        : Progressive\nBits/(Pixel*Frame)               : 0.201\nStream size                      : 597 MiB\n\nAudio\nFormat                           : MPEG Audio\nFormat version                   : Version 1\nFormat profile                   : Layer 3\nCodec ID                         : 55\nCodec ID/Hint                    : MP3\nDuration                         : 1h 38mn\nBit rate mode                    : Variable\nBit rate                         : 129 Kbps\nMinimum bit rate                 : 128 Kbps\nChannel(s)                       : 2 channels\nSampling rate                    : 48.0 KHz\nResolution                       : 16 bits\nStream size                      : 91.0 MiB\nWriting library                  : LAME3.91 \nEncoding settings                : VBR (mtrh)\n","torrent":{"xt":"urn:btih:7b1f1687510e1502c4e9fe3a626e6eb963ae6ae8","amp;dn":"Body+of+Evidence+%281993%29+Madonna+%28DVDrip%29","amp;tr":["udp%3A%2F%2Ftracker.openbittorrent.com%3A80","udp%3A%2F%2Fopen.demonii.com%3A1337","udp%3A%2F%2Ftracker.coppersurfer.tk%3A6969","udp%3A%2F%2Fexodus.desync.com%3A6969"],"infoHash":"7b1f1687510e1502c4e9fe3a626e6eb963ae6ae8","infoHashBuffer":{"type":"Buffer","data":[123,31,22,135,81,14,21,2,196,233,254,58,98,110,110,185,99,174,106,232]},"announce":[],"urlList":[]}}